<svg width="54" height="54" viewBox="0 0 54 54" fill="none" xmlns="http://www.w3.org/2000/svg">
<g clip-path="url(#clip0_525_1349)">
<path d="M23.9 27.1V33.8H26.1V27.1H23.9ZM15 27.1V33.8H17.2V27.1H15ZM23.9 27.1V33.8H26.1V27.1H23.9ZM23.9 27.1V33.8H26.1V27.1H23.9ZM15 33.8H17.2V27.1H15V33.8ZM26.2 16V7H6.09998V44.9H47.4V16H26.2ZM17.2 9.3H23.9V16H17.2V9.3ZM8.29998 9.3H15V16H8.29998V9.3ZM45.2 42.7H26.2V36H24V42.7H17.3V36H15V42.7H8.29998V18.2H15V24.9H17.2V18.2H23.9V24.9H26.1V18.2H45.1V42.7H45.2ZM23.9 33.8H26.1V27.1H23.9V33.8ZM15 33.8H17.2V27.1H15V33.8ZM15 27.1V33.8H17.2V27.1H15ZM23.9 27.1V33.8H26.1V27.1H23.9ZM23.9 27.1V33.8H26.1V27.1H23.9ZM15 27.1V33.8H17.2V27.1H15ZM23.9 27.1V33.8H26.1V27.1H23.9Z" fill="#1C1B1F"/>
<path d="M31.5 24.9H8.30005V27.1H31.5V24.9Z" fill="#E83B23"/>
<path d="M31.5 33.8H8.30005V36H31.5V33.8Z" fill="#E83B23"/>
<path d="M39 24.9H36.8V27.1H39V24.9Z" fill="#E83B23"/>
<path d="M39 33.8H36.8V36H39V33.8Z" fill="#E83B23"/>
</g>
<defs>
<clipPath id="clip0_525_1349">
<rect width="54" height="54" fill="white"/>
</clipPath>
</defs>
</svg>
