<svg width="50" height="50" viewBox="0 0 50 50" fill="none" xmlns="http://www.w3.org/2000/svg">
<circle cx="25" cy="25" r="25" fill="#1F8ACA"/>
<path d="M19.4475 24.1387C21.0675 27.3225 23.6775 29.9325 26.8613 31.5525L29.3362 29.0775C29.6512 28.7625 30.09 28.6725 30.4838 28.7963C31.7438 29.2125 33.0938 29.4375 34.5 29.4375C34.7984 29.4375 35.0845 29.556 35.2955 29.767C35.5065 29.978 35.625 30.2641 35.625 30.5625V34.5C35.625 34.7984 35.5065 35.0845 35.2955 35.2955C35.0845 35.5065 34.7984 35.625 34.5 35.625C29.4277 35.625 24.5632 33.6101 20.9766 30.0234C17.3899 26.4368 15.375 21.5723 15.375 16.5C15.375 16.2016 15.4935 15.9155 15.7045 15.7045C15.9155 15.4935 16.2016 15.375 16.5 15.375H20.4375C20.7359 15.375 21.022 15.4935 21.233 15.7045C21.444 15.9155 21.5625 16.2016 21.5625 16.5C21.5625 17.9062 21.7875 19.2563 22.2037 20.5163C22.3275 20.91 22.2375 21.3488 21.9225 21.6638L19.4475 24.1387Z" fill="white"/>
</svg>
