<svg width="50" height="50" viewBox="0 0 50 50" fill="none" xmlns="http://www.w3.org/2000/svg">
<circle cx="25" cy="25" r="25" fill="#27A634"/>
<path d="M25.0567 10.8334C17.3217 10.8334 11.0175 17.1375 11.0175 24.8725C11.0175 27.3517 11.6692 29.76 12.8875 31.885L10.9042 39.1667L18.3417 37.2117C20.3958 38.3309 22.705 38.9259 25.0567 38.9259C32.7917 38.9259 39.0958 32.6217 39.0958 24.8867C39.0958 21.1325 37.6367 17.605 34.9875 14.9559C32.3383 12.2925 28.8108 10.8334 25.0567 10.8334ZM25.0708 13.1992C28.1875 13.1992 31.1058 14.4175 33.3158 16.6275C35.5117 18.8375 36.73 21.77 36.73 24.8867C36.73 31.3184 31.4883 36.5459 25.0567 36.5459C22.96 36.5459 20.9058 35.9934 19.1208 34.9167L18.6958 34.6759L14.2758 35.8375L15.4517 31.5309L15.1683 31.0775C14.0067 29.25 13.3833 27.0825 13.3833 24.8725C13.3975 18.4409 18.625 13.1992 25.0708 13.1992ZM20.0842 18.3842C19.8575 18.3842 19.475 18.4692 19.1492 18.8234C18.8375 19.1775 17.9167 20.0417 17.9167 21.7559C17.9167 23.4842 19.1775 25.1417 19.3333 25.3825C19.5317 25.6234 21.8267 29.165 25.3542 30.6667C26.19 31.0492 26.8417 31.2617 27.3517 31.4175C28.1875 31.6867 28.9525 31.6442 29.5617 31.5592C30.2417 31.46 31.63 30.7092 31.9275 29.8875C32.225 29.0659 32.225 28.3717 32.14 28.2159C32.0408 28.0742 31.8142 27.9892 31.46 27.8334C31.1058 27.635 29.3775 26.785 29.0658 26.6717C28.74 26.5584 28.5417 26.5017 28.2725 26.8417C28.0458 27.1959 27.3658 27.9892 27.1675 28.2159C26.955 28.4567 26.7567 28.485 26.4167 28.315C26.0483 28.1309 24.915 27.7625 23.5833 26.5725C22.535 25.6375 21.8408 24.49 21.6283 24.1359C21.4583 23.7959 21.6142 23.5834 21.7842 23.4275C21.94 23.2717 22.1667 23.0167 22.3083 22.8042C22.4925 22.6059 22.5492 22.45 22.6625 22.2234C22.7758 21.9825 22.7192 21.7842 22.6342 21.6142C22.5492 21.4584 21.8408 19.7017 21.5433 19.0075C21.26 18.3275 20.9767 18.4125 20.75 18.3984C20.5517 18.3984 20.325 18.3842 20.0842 18.3842Z" fill="white"/>
</svg>
