<svg width="12" height="12" viewBox="0 0 12 12" fill="none" xmlns="http://www.w3.org/2000/svg">
<path d="M10.9538 11.6281C9.65726 11.6281 8.37329 11.3205 7.10192 10.7051C5.83057 10.0897 4.69554 9.28263 3.69682 8.28391C2.6981 7.2852 1.88999 6.15124 1.27247 4.88201C0.654953 3.61279 0.346191 2.32989 0.346191 1.03331C0.346191 0.833313 0.412858 0.666646 0.546191 0.533313C0.679525 0.39998 0.846191 0.333313 1.04619 0.333313H3.22051C3.39316 0.333313 3.54381 0.386518 3.67244 0.49293C3.80106 0.599341 3.88076 0.736735 3.91154 0.905113L4.29359 2.86663C4.32008 3.03073 4.3173 3.17987 4.28526 3.31406C4.2532 3.44825 4.1829 3.56535 4.07436 3.66535L2.54102 5.16406C3.06752 6.05809 3.69531 6.86578 4.42437 7.58715C5.15343 8.30851 5.97865 8.93757 6.90002 9.47433L8.38976 7.95895C8.4983 7.8504 8.62672 7.77327 8.77501 7.72755C8.9233 7.68181 9.07522 7.6722 9.23077 7.6987L11.082 8.07561C11.2504 8.11322 11.3878 8.19464 11.4942 8.31985C11.6006 8.44506 11.6538 8.59399 11.6538 8.76665V10.9281C11.6538 11.1281 11.5872 11.2948 11.4538 11.4281C11.3205 11.5615 11.1538 11.6281 10.9538 11.6281ZM2.06156 4.21793L3.25131 3.07946C3.27267 3.06236 3.28656 3.03886 3.29297 3.00895C3.29939 2.97902 3.29831 2.95125 3.28976 2.92561L3.00002 1.43586C2.99147 1.40167 2.97651 1.37604 2.95514 1.35895C2.93377 1.34185 2.906 1.3333 2.87181 1.3333H1.44617C1.42053 1.3333 1.39916 1.34185 1.38206 1.35895C1.36497 1.37604 1.35642 1.3974 1.35642 1.42305C1.3906 1.8786 1.46517 2.34142 1.58014 2.81151C1.6951 3.2816 1.85557 3.75041 2.06156 4.21793ZM7.83589 9.94098C8.27777 10.147 8.73867 10.3045 9.21859 10.4134C9.6985 10.5224 10.147 10.5871 10.5641 10.6076C10.5898 10.6076 10.6111 10.5991 10.6282 10.582C10.6453 10.5649 10.6539 10.5435 10.6539 10.5179V9.11535C10.6539 9.08116 10.6453 9.05338 10.6282 9.032C10.6111 9.01063 10.5855 8.99567 10.5513 8.98713L9.15129 8.70251C9.12565 8.69397 9.10321 8.6929 9.08397 8.69931C9.06474 8.70572 9.04444 8.71961 9.02307 8.74098L7.83589 9.94098Z" fill="#E83B23"/>
</svg>
