<svg width="8" height="14" viewBox="0 0 8 14" fill="none" xmlns="http://www.w3.org/2000/svg">
<path d="M4.00006 13.5C2.87358 13.5 1.95306 13.3299 1.23853 12.9897C0.524009 12.6496 0.166748 12.2085 0.166748 11.6667C0.166748 11.3419 0.303281 11.0532 0.576348 10.8006C0.849426 10.5481 1.22656 10.3406 1.70775 10.1782L1.99491 11.1308C1.78466 11.2077 1.60816 11.2942 1.46543 11.3904C1.3227 11.4865 1.22996 11.5786 1.18723 11.6667C1.29749 11.9043 1.62548 12.1026 2.1712 12.2615C2.71693 12.4205 3.32655 12.5 4.00006 12.5C4.6693 12.5 5.27956 12.4205 5.83085 12.2615C6.38214 12.1026 6.7129 11.9043 6.82315 11.6667C6.78042 11.5786 6.68768 11.4876 6.54495 11.3936C6.40222 11.2996 6.22572 11.212 6.01546 11.1308L6.30905 10.1782C6.79024 10.3406 7.16459 10.5481 7.43211 10.8006C7.69963 11.0532 7.83338 11.3419 7.83338 11.6667C7.83338 12.2085 7.47612 12.6496 6.7616 12.9897C6.04707 13.3299 5.12655 13.5 4.00006 13.5ZM4.00006 9.56283C4.20006 9.18335 4.424 8.81518 4.67186 8.45833C4.91973 8.10149 5.16845 7.76067 5.41803 7.43588C5.83769 6.88973 6.17294 6.39528 6.4238 5.95255C6.67465 5.50982 6.80008 4.95896 6.80008 4.29998C6.80008 3.52392 6.52743 2.86323 5.98213 2.31792C5.43682 1.77262 4.77613 1.49997 4.00006 1.49997C3.224 1.49997 2.56331 1.77262 2.018 2.31792C1.4727 2.86323 1.20005 3.52392 1.20005 4.29998C1.20005 4.95896 1.32655 5.50982 1.57955 5.95255C1.83254 6.39528 2.16672 6.88973 2.5821 7.43588C2.83168 7.76067 3.0804 8.10149 3.32826 8.45833C3.57613 8.81518 3.80006 9.18335 4.00006 9.56283ZM4.00006 11.2948C3.89066 11.2948 3.79024 11.2587 3.69878 11.1865C3.60734 11.1143 3.53939 11.0213 3.49495 10.9077C3.22229 10.1615 2.89793 9.53565 2.52186 9.0301C2.1458 8.52454 1.78298 8.04015 1.4334 7.5769C1.09494 7.11365 0.804776 6.63373 0.562898 6.13715C0.32102 5.64057 0.200081 5.02818 0.200081 4.29998C0.200081 3.23588 0.567387 2.33653 1.302 1.60192C2.03661 0.867305 2.93596 0.5 4.00006 0.5C5.06416 0.5 5.96352 0.867305 6.69813 1.60192C7.43274 2.33653 7.80005 3.23588 7.80005 4.29998C7.80005 5.02818 7.68189 5.64057 7.44556 6.13715C7.20924 6.63373 6.9163 7.11365 6.56673 7.5769C6.22826 8.04015 5.86822 8.52454 5.4866 9.0301C5.10498 9.53565 4.77784 10.1615 4.50518 10.9077C4.46074 11.0213 4.39279 11.1143 4.30135 11.1865C4.20989 11.2587 4.10946 11.2948 4.00006 11.2948ZM4.00006 5.51792C4.33766 5.51792 4.62505 5.39933 4.86223 5.16215C5.09941 4.92497 5.218 4.63758 5.218 4.29998C5.218 3.96238 5.09941 3.67499 4.86223 3.43782C4.62505 3.20064 4.33766 3.08205 4.00006 3.08205C3.66246 3.08205 3.37508 3.20064 3.1379 3.43782C2.90072 3.67499 2.78213 3.96238 2.78213 4.29998C2.78213 4.63758 2.90072 4.92497 3.1379 5.16215C3.37508 5.39933 3.66246 5.51792 4.00006 5.51792Z" fill="#E83B23"/>
</svg>
