<svg width="14" height="13" viewBox="0 0 14 13" fill="none" xmlns="http://www.w3.org/2000/svg">
<path d="M7.00006 0.0641479L12.8539 3.54875C13.0026 3.64533 13.1197 3.77246 13.2052 3.93015C13.2906 4.08784 13.3334 4.25557 13.3334 4.43335V11.4615C13.3334 11.7983 13.2167 12.0833 12.9834 12.3167C12.75 12.55 12.465 12.6667 12.1282 12.6667H1.87188C1.53513 12.6667 1.25008 12.55 1.01675 12.3167C0.783415 12.0833 0.666748 11.7983 0.666748 11.4615V4.43335C0.666748 4.25557 0.709487 4.08784 0.794965 3.93015C0.880431 3.77246 0.99752 3.64533 1.14623 3.54875L7.00006 0.0641479ZM7.00006 7.43335L12.2001 4.33335L7.00006 1.23335L1.80006 4.33335L7.00006 7.43335ZM7.00006 8.60255L1.66673 5.41536V11.4615C1.66673 11.5214 1.68596 11.5705 1.72443 11.609C1.7629 11.6474 1.81205 11.6667 1.87188 11.6667H12.1282C12.1881 11.6667 12.2372 11.6474 12.2757 11.609C12.3142 11.5705 12.3334 11.5214 12.3334 11.4615V5.41536L7.00006 8.60255Z" fill="#E83B23"/>
</svg>
