<svg width="30" height="30" viewBox="0 0 30 30" fill="none" xmlns="http://www.w3.org/2000/svg">
<path d="M24.125 11.25C24.125 12.5 23.875 13.625 23.5 14.625C22.875 16.375 21.75 17.875 20.625 19.25C19.875 20.25 19.125 21.125 18.375 22.125C17.375 23.5 16.5 25 16 26.75C15.875 27.125 15.75 27.625 15.25 27.75C14.875 27.875 14.625 27.625 14.375 27.375C14.125 27.125 14.125 26.75 14 26.5C13.125 23.5 11 21.125 9.125 18.75C7.375 16.625 5.875 14.25 5.875 11.25C5.875 6.125 10 2.125 15 2.125C20 2.125 24.125 6.125 24.125 11.25Z" fill="#DD4A40"/>
<path d="M15.125 14.375C16.9199 14.375 18.375 12.9199 18.375 11.125C18.375 9.33007 16.9199 7.875 15.125 7.875C13.3301 7.875 11.875 9.33007 11.875 11.125C11.875 12.9199 13.3301 14.375 15.125 14.375Z" fill="#802D27"/>
</svg>
