<svg width="52" height="40" viewBox="0 0 52 40" fill="none" xmlns="http://www.w3.org/2000/svg">
<path d="M17.75 22C15.8937 22 14.3047 21.3391 12.9828 20.0172C11.6609 18.6953 11 17.1063 11 15.25C11 13.3938 11.6609 11.8047 12.9828 10.4828C14.3047 9.16094 15.8937 8.5 17.75 8.5C19.6063 8.5 21.1953 9.16094 22.5172 10.4828C23.8391 11.8047 24.5 13.3938 24.5 15.25C24.5 17.1063 23.8391 18.6953 22.5172 20.0172C21.1953 21.3391 19.6063 22 17.75 22ZM1 39.5V36.25C1 35.1667 1.27083 34.2604 1.8125 33.5312C2.35417 32.8021 3.125 32.2083 4.125 31.75C6.125 30.7917 8.33333 30.0104 10.75 29.4062C13.1667 28.8021 15.5 28.5 17.75 28.5C20 28.5 22.3333 28.8021 24.75 29.4062C27.1667 30.0104 29.375 30.7917 31.375 31.75C32.375 32.2083 33.1458 32.8021 33.6875 33.5312C34.2292 34.2604 34.5 35.1667 34.5 36.25V39.5H1ZM2.75 37.75H32.75V36.25C32.75 35.5 32.5312 34.8958 32.0938 34.4375C31.6562 33.9792 31.125 33.5833 30.5 33.25C28.9167 32.4167 26.9479 31.7083 24.5938 31.125C22.2396 30.5417 19.9583 30.25 17.75 30.25C15.5417 30.25 13.2604 30.5417 10.9062 31.125C8.55208 31.7083 6.58333 32.4167 5 33.25C4.375 33.5833 3.84375 33.9792 3.40625 34.4375C2.96875 34.8958 2.75 35.5 2.75 36.25V37.75ZM17.75 20.25C19.125 20.25 20.3021 19.7604 21.2812 18.7812C22.2604 17.8021 22.75 16.625 22.75 15.25C22.75 13.875 22.2604 12.6979 21.2812 11.7188C20.3021 10.7396 19.125 10.25 17.75 10.25C16.375 10.25 15.1979 10.7396 14.2188 11.7188C13.2396 12.6979 12.75 13.875 12.75 15.25C12.75 16.625 13.2396 17.8021 14.2188 18.7812C15.1979 19.7604 16.375 20.25 17.75 20.25Z" fill="#757575" stroke="#757575" stroke-width="0.3"/>
<path d="M44.125 28.25L45.375 29.5C47.2083 27.6667 48.6667 25.5245 49.75 23.0736C50.8333 20.6226 51.375 18.0184 51.375 15.261C51.375 12.5037 50.834 9.8915 49.7521 7.4245C48.6701 4.9575 47.2111 2.816 45.375 1L44.125 2.25C45.8333 3.95833 47.1771 5.92708 48.1563 8.15625C49.1354 10.3854 49.625 12.7518 49.625 15.2555C49.625 17.7592 49.1354 20.1238 48.1563 22.3493C47.1771 24.5748 45.8333 26.5417 44.125 28.25Z" fill="#E83B23"/>
<path d="M35.75 19.875L37 21.125C37.75 20.375 38.3542 19.4896 38.8125 18.4688C39.2708 17.4479 39.5 16.375 39.5 15.25C39.5 14.0417 39.2708 12.9479 38.8125 11.9688C38.3542 10.9896 37.75 10.125 37 9.375L35.75 10.625C36.375 11.25 36.8646 11.9375 37.2188 12.6875C37.5729 13.4375 37.75 14.2917 37.75 15.25C37.75 16.125 37.5729 16.9583 37.2188 17.75C36.8646 18.5417 36.375 19.25 35.75 19.875Z" fill="#E83B23"/>
<path d="M44.125 28.25L45.375 29.5C47.2083 27.6667 48.6667 25.5245 49.75 23.0736C50.8333 20.6226 51.375 18.0184 51.375 15.261C51.375 12.5037 50.834 9.8915 49.7521 7.4245C48.6701 4.9575 47.2111 2.816 45.375 1L44.125 2.25C45.8333 3.95833 47.1771 5.92708 48.1563 8.15625C49.1354 10.3854 49.625 12.7518 49.625 15.2555C49.625 17.7592 49.1354 20.1238 48.1563 22.3493C47.1771 24.5748 45.8333 26.5417 44.125 28.25Z" stroke="#E83B23" stroke-width="0.3"/>
<path d="M35.75 19.875L37 21.125C37.75 20.375 38.3542 19.4896 38.8125 18.4688C39.2708 17.4479 39.5 16.375 39.5 15.25C39.5 14.0417 39.2708 12.9479 38.8125 11.9688C38.3542 10.9896 37.75 10.125 37 9.375L35.75 10.625C36.375 11.25 36.8646 11.9375 37.2188 12.6875C37.5729 13.4375 37.75 14.2917 37.75 15.25C37.75 16.125 37.5729 16.9583 37.2188 17.75C36.8646 18.5417 36.375 19.25 35.75 19.875Z" stroke="#E83B23" stroke-width="0.3"/>
</svg>
