<svg width="30" height="34" viewBox="0 0 30 34" fill="none" xmlns="http://www.w3.org/2000/svg">
<path d="M23.7 0.5L19.2999 5L14.8 0.5L10.3 5L5.79995 0.5L0.199951 6.1V13.4H2.39995V7L5.79995 3.7L9.09995 7V13.4H11.3V7L14.7 3.7L18 7V13.4H20.2999V7L23.5999 3.7L27 7V13.4H29.2999V6.1L23.7 0.5ZM27 31.3H20.4V24.6H18.1V31.3H11.4V24.6H9.19995V31.3H2.49995V24.6H0.299952V33.5H29.2999V24.6H27V31.3ZM27 15.6V22.3H29.2999V15.6H27ZM20.4 15.6H18.1V22.3H20.4V15.6ZM11.4 15.6H9.19995V22.3H11.4V15.6ZM2.49995 15.6H0.299952V22.3H2.49995V15.6Z" fill="#1C1B1F"/>
</svg>
