<svg width="42" height="45" viewBox="0 0 42 45" fill="none" xmlns="http://www.w3.org/2000/svg">
<path d="M1 44.125V42.375H41V44.125H1ZM1 11.625V10.375L21 1L41 10.375V11.625H1ZM6.25 9.875H35.75L21 3L6.25 9.875Z" fill="#757575" stroke="#757575" stroke-width="0.3"/>
<path d="M8.375 16.625V37.375H10.125V16.625H8.375Z" fill="#E83B23"/>
<path d="M20.125 16.625V37.375H21.875V16.625H20.125Z" fill="#E83B23"/>
<path d="M31.875 16.625V37.375H33.625V16.625H31.875Z" fill="#E83B23"/>
<path d="M8.375 16.625V37.375H10.125V16.625H8.375Z" stroke="#E83B23" stroke-width="0.3"/>
<path d="M20.125 16.625V37.375H21.875V16.625H20.125Z" stroke="#E83B23" stroke-width="0.3"/>
<path d="M31.875 16.625V37.375H33.625V16.625H31.875Z" stroke="#E83B23" stroke-width="0.3"/>
</svg>
