<svg width="42" height="38" viewBox="0 0 42 38" fill="none" xmlns="http://www.w3.org/2000/svg">
<path d="M17.9 20.1V26.8H20.1V20.1H17.9ZM8.99998 20.1V26.8H11.2V20.1H8.99998ZM17.9 20.1V26.8H20.1V20.1H17.9ZM17.9 20.1V26.8H20.1V20.1H17.9ZM8.99998 26.8H11.2V20.1H8.99998V26.8ZM20.2 9V0H0.0999756V37.9H41.4V9H20.2ZM11.2 2.3H17.9V9H11.2V2.3ZM2.29998 2.3H8.99998V9H2.29998V2.3ZM39.2 35.7H20.2V29H18V35.7H11.3V29H8.99998V35.7H2.29998V11.2H8.99998V17.9H11.2V11.2H17.9V17.9H20.1V11.2H39.1V35.7H39.2ZM17.9 26.8H20.1V20.1H17.9V26.8ZM8.99998 26.8H11.2V20.1H8.99998V26.8ZM8.99998 20.1V26.8H11.2V20.1H8.99998ZM17.9 20.1V26.8H20.1V20.1H17.9ZM17.9 20.1V26.8H20.1V20.1H17.9ZM8.99998 20.1V26.8H11.2V20.1H8.99998ZM17.9 20.1V26.8H20.1V20.1H17.9Z" fill="#1C1B1F"/>
</svg>
