<svg width="54" height="54" viewBox="0 0 54 54" fill="none" xmlns="http://www.w3.org/2000/svg">
<g clip-path="url(#clip0_525_1385)">
<path d="M43.6 19.8C45 16.4 45.6 12.6 45.3 8.5C41.2 8.2 37.4 8.8 34 10.2C30.6 11.6 27.4 13.8 24.4 16.8C24.3 16.9 24.1 17.1 24 17.2C23.9 17.3 23.8 17.5 23.6 17.6L19 16.7C18.4 16.6 17.8 16.6 17.2 16.8C16.6 17 16.1 17.3 15.7 17.7L7.59998 25.8L16.3 29.5L24.2 37.4L27.9 46.1L36 38C36.4 37.6 36.7 37.1 36.9 36.5C37.1 35.9 37.1 35.3 37 34.7L36.1 30.1L36.9 29.3C40 26.5 42.2 23.3 43.6 19.8ZM11.6 25L17.4 19.2C17.6 19 17.8 18.9 18 18.8C18.2 18.7 18.4 18.7 18.7 18.8L22.1 19.5C21.1 20.7 20.2 22 19.4 23.3C18.6 24.6 17.8 25.9 17.1 27.3L11.6 25ZM34.9 36C34.8 36.2 34.7 36.4 34.5 36.6L28.7 42.4L26.4 36.9C27.8 36.2 29.1 35.4 30.4 34.6C31.7 33.8 33 32.9 34.2 31.9L34.9 35.3C35 35.5 35 35.7 34.9 36ZM35.6 27.7C33.9 29.3 32.2 30.8 30.4 32C28.6 33.2 26.8 34.2 25.1 35L18.8 28.7C19.6 26.9 20.6 25.2 21.8 23.4C23 21.6 24.5 19.9 26.1 18.2C28.5 15.8 31.1 14 33.8 12.7C36.5 11.4 39.6 10.7 43.2 10.6C43 14.2 42.3 17.3 41.1 20C39.8 22.7 38 25.3 35.6 27.7Z" fill="#1C1B1F"/>
<path d="M17.8 36.1C16.9 35.2 15.9 34.8 14.6 34.8C13.3 34.8 12.3 35.2 11.4 36.1C10.6 36.9 10 38.1 9.40005 39.8C8.90005 41.5 8.50005 43.4 8.30005 45.6C10.5 45.4 12.4 45 14.1 44.5C15.8 44 17 43.3 17.8 42.5C18.7 41.6 19.1 40.6 19.1 39.3C19.1 38 18.6 37 17.8 36.1ZM16.2 40.8C15.8 41.2 15.1 41.6 14.1 42C13.1 42.4 12.1 42.6 11.1 42.8C11.2 41.8 11.5 40.8 11.8 39.8C12.2 38.8 12.6 38.1 13 37.7C13.5 37.3 14 37 14.6 37C15.2 37 15.8 37.2 16.2 37.6C16.7 38 16.9 38.6 16.9 39.2C16.8 39.8 16.6 40.4 16.2 40.8Z" fill="#E83B23"/>
<path d="M16.2 37.6C16.7 38 16.9 38.6 16.9 39.2C16.9 39.8 16.7 40.3 16.2 40.8C15.8 41.2 15.1 41.6 14.1 42C13.1 42.4 12.1 42.6 11.1 42.8C11.2 41.8 11.5 40.8 11.8 39.8C12.2 38.8 12.6 38.1 13 37.7C13.5 37.3 14 37 14.6 37C15.2 37 15.8 37.2 16.2 37.6Z" fill="#E83B23"/>
<path d="M36.1 21.1C36.1 22 35.8 22.8 35.1 23.4C34.4 24.1 33.6001 24.4 32.7001 24.4C31.8001 24.4 31 24.1 30.3 23.4C29.7 22.7 29.3 22 29.3 21.1C29.3 20.2 29.6 19.4 30.3 18.7C31 18.1 31.8001 17.7 32.7001 17.7C33.6001 17.7 34.4 18 35.1 18.7C35.8 19.4 36.1 20.2 36.1 21.1Z" fill="#E83B23"/>
</g>
<defs>
<clipPath id="clip0_525_1385">
<rect width="54" height="54" fill="white"/>
</clipPath>
</defs>
</svg>
