<svg width="54" height="54" viewBox="0 0 54 54" fill="none" xmlns="http://www.w3.org/2000/svg">
<g clip-path="url(#clip0_525_1357)">
<path d="M35.7 10.5L31.2999 15L26.8 10.5L22.3 15L17.8 10.5L12.2 16.1V23.4H14.4V17L17.8 13.7L21.1 17V23.4H23.3V17L26.7 13.7L30 17V23.4H32.2999V17L35.5999 13.7L39 17V23.4H41.2999V16.1L35.7 10.5ZM39 41.3H32.4V34.6H30.1V41.3H23.4V34.6H21.2V41.3H14.5V34.6H12.3V43.5H41.2999V34.6H39V41.3ZM39 25.6V32.3H41.2999V25.6H39ZM32.4 25.6H30.1V32.3H32.4V25.6ZM23.4 25.6H21.2V32.3H23.4V25.6ZM14.5 25.6H12.3V32.3H14.5V25.6Z" fill="#1C1B1F"/>
<path d="M43.4 23.4H10V25.6H43.4V23.4Z" fill="#E83B23"/>
<path d="M43.4 32.3H10V34.5H43.4V32.3Z" fill="#E83B23"/>
</g>
<defs>
<clipPath id="clip0_525_1357">
<rect width="54" height="54" fill="white"/>
</clipPath>
</defs>
</svg>
