<svg width="54" height="54" viewBox="0 0 54 54" fill="none" xmlns="http://www.w3.org/2000/svg">
<g clip-path="url(#clip0_525_1378)">
<path d="M17.8 16.1L4.5 25.6V44.6H15V34.6H20.7V44.6H31.2V25.6L17.8 16.1ZM29 42.4H22.9V32.4H12.8V42.4H6.7V26.8L17.9 19L29 26.8V42.4ZM23.2 8.9V14.4L25.4 16V11.1H46.8V42.3H35.7V44.5H49.1V8.9H23.2Z" fill="#1C1B1F"/>
<path d="M41.8 16.1H38.4V19.5H41.8V16.1Z" fill="#E83B23"/>
<path d="M41.8 25H38.4V28.4H41.8V25Z" fill="#E83B23"/>
<path d="M41.8 34H38.4V37.4H41.8V34Z" fill="#E83B23"/>
</g>
<defs>
<clipPath id="clip0_525_1378">
<rect width="54" height="54" fill="white"/>
</clipPath>
</defs>
</svg>
