<?xml version="1.0" encoding="utf-8"?>
<!-- Generator: Adobe Illustrator 21.0.0, SVG Export Plug-In . SVG Version: 6.00 Build 0)  -->
<svg version="1.1" id="Layer_1" xmlns="http://www.w3.org/2000/svg" xmlns:xlink="http://www.w3.org/1999/xlink" x="0px" y="0px"
	 viewBox="0 0 54 54" style="enable-background:new 0 0 54 54;" xml:space="preserve">
<style type="text/css">
	.st0{fill:#D9D9D9;filter:url(#Adobe_OpacityMaskFilter);}
	.st1{mask:url(#mask0_564_106);}
	.st2{fill:#1C1B1F;}
	.st3{fill:#E83B23;}
</style>
<defs>
	<filter id="Adobe_OpacityMaskFilter" filterUnits="userSpaceOnUse" x="3.8" y="13.5" width="31.5" height="29.8">
		<feColorMatrix  type="matrix" values="1 0 0 0 0  0 1 0 0 0  0 0 1 0 0  0 0 0 1 0"/>
	</filter>
</defs>
<mask maskUnits="userSpaceOnUse" x="3.8" y="13.5" width="31.5" height="29.8" id="mask0_564_106">
	<rect class="st0" width="54" height="54"/>
</mask>
<g class="st1">
	<path class="st2" d="M24.4,15.5c-1.3-1.3-2.9-2-4.8-2c-1.9,0-3.4,0.7-4.8,2c-1.3,1.3-2,2.9-2,4.8s0.7,3.5,2,4.8
		c1.3,1.3,2.9,2,4.8,2c1.9,0,3.5-0.7,4.8-2s2-2.9,2-4.8S25.7,16.8,24.4,15.5z M22.8,23.4c-0.9,0.9-1.9,1.3-3.2,1.3
		c-1.2,0-2.3-0.4-3.2-1.3s-1.3-1.9-1.3-3.2s0.4-2.3,1.3-3.2s1.9-1.3,3.2-1.3c1.2,0,2.3,0.4,3.2,1.3c0.9,0.9,1.3,1.9,1.3,3.2
		S23.7,22.5,22.8,23.4z M34.6,36.9c-0.5-0.8-1.3-1.3-2.2-1.8c0,0,0,0,0,0c-0.3-0.1-0.5-0.2-0.8-0.4c-1.6-0.7-3.4-1.3-5.3-1.8
		C24,32.3,21.8,32,19.6,32c-2.2,0-4.4,0.3-6.7,0.9c-2.2,0.6-4.3,1.3-6.1,2.2c-1,0.5-1.7,1-2.2,1.8c-0.5,0.8-0.8,1.7-0.8,2.7v3.7
		h31.5v-3.7C35.3,38.5,35.1,37.6,34.6,36.9z M33.1,41h-27v-1.5c0-0.6,0.2-1.1,0.5-1.5c0.3-0.4,0.8-0.7,1.3-1
		c1.4-0.7,3.2-1.4,5.3-1.9s4.3-0.8,6.4-0.8c2.1,0,4.3,0.3,6.4,0.8c2.1,0.6,3.9,1.2,5.3,1.9c0.5,0.3,0.9,0.6,1.3,1
		c0.3,0.4,0.5,0.9,0.5,1.5V41z"/>
</g>
<rect x="56.5" y="12" class="st3" width="5" height="4"/>
<path class="st3" d="M39.6,20.3c0,1.2-0.2,2.3-0.7,3.3c-0.5,1-1.1,1.9-1.9,2.7l-1.7-1.7c0.6-0.6,1-1.2,1.4-2
	c0.3-0.7,0.5-1.5,0.5-2.3c0-0.9-0.2-1.7-0.5-2.4c-0.3-0.7-0.8-1.3-1.4-1.9l1.7-1.7c0.8,0.8,1.4,1.7,1.9,2.7
	C39.3,17.9,39.6,19,39.6,20.3z"/>
<path class="st3" d="M50.2,20.3c0,2.6-0.5,5.1-1.6,7.4c-1,2.3-2.4,4.3-4.2,6.1L42.7,32c1.6-1.5,2.8-3.3,3.7-5.3
	c0.9-2,1.3-4.2,1.3-6.5c0-2.3-0.5-4.4-1.3-6.4c-0.9-2-2.1-3.8-3.7-5.3l1.7-1.7c1.8,1.7,3.2,3.7,4.2,6.1
	C49.6,15.2,50.2,17.7,50.2,20.3z"/>
</svg>
