<?xml version="1.0" encoding="utf-8"?>
<!-- Generator: Adobe Illustrator 21.0.0, SVG Export Plug-In . SVG Version: 6.00 Build 0)  -->
<svg version="1.1" id="Layer_1" xmlns="http://www.w3.org/2000/svg" xmlns:xlink="http://www.w3.org/1999/xlink" x="0px" y="0px"
	 viewBox="0 0 54 54" style="enable-background:new 0 0 54 54;" xml:space="preserve">
<style type="text/css">
	.st0{fill:#D9D9D9;filter:url(#Adobe_OpacityMaskFilter);}
	.st1{mask:url(#mask0_564_97);}
	.st2{fill:#1C1B1F;}
	.st3{fill:#E83B23;}
</style>
<defs>
	<filter id="Adobe_OpacityMaskFilter" filterUnits="userSpaceOnUse" x="4.5" y="9" width="45" height="36">
		<feColorMatrix  type="matrix" values="1 0 0 0 0  0 1 0 0 0  0 0 1 0 0  0 0 0 1 0"/>
	</filter>
</defs>
<mask maskUnits="userSpaceOnUse" x="4.5" y="9" width="45" height="36" id="mask0_564_97">
	<rect class="st0" width="54" height="54"/>
</mask>
<g class="st1">
	<path class="st2" d="M18,16.3L4.5,25.9V45h10.6V34.9h5.7V45h10.6V25.9L18,16.3z M29.3,42.8h-6.1V32.6H12.9v10.1H6.8V27L18,19.1
		L29.3,27V42.8z M23.4,9v5.6l2.3,1.6v-4.9h21.6v31.5H36V45h13.5V9H23.4z"/>
</g>
<rect x="58.1" y="11.3" class="st3" width="5" height="4"/>
<rect x="38.8" y="16.3" class="st3" width="3.5" height="3.5"/>
<rect x="38.8" y="25.3" class="st3" width="3.5" height="3.5"/>
<rect x="38.8" y="34.3" class="st3" width="3.5" height="3.5"/>
</svg>
