<?xml version="1.0" encoding="utf-8"?>
<!-- Generator: Adobe Illustrator 21.0.0, SVG Export Plug-In . SVG Version: 6.00 Build 0)  -->
<svg version="1.1" id="Layer_1" xmlns="http://www.w3.org/2000/svg" xmlns:xlink="http://www.w3.org/1999/xlink" x="0px" y="0px"
	 viewBox="0 0 54 54" style="enable-background:new 0 0 54 54;" xml:space="preserve">
<style type="text/css">
	.st0{fill:#D9D9D9;filter:url(#Adobe_OpacityMaskFilter);}
	.st1{mask:url(#mask0_554_54);}
	.st2{fill:#1C1B1F;}
	.st3{fill:#E83B23;}
</style>
<defs>
	<filter id="Adobe_OpacityMaskFilter" filterUnits="userSpaceOnUse" x="11.3" y="5" width="31.5" height="35.5">
		<feColorMatrix  type="matrix" values="1 0 0 0 0  0 1 0 0 0  0 0 1 0 0  0 0 0 1 0"/>
	</filter>
</defs>
<mask maskUnits="userSpaceOnUse" x="11.3" y="5" width="31.5" height="35.5" id="mask0_554_54">
	<rect class="st0" width="54" height="54"/>
</mask>
<g class="st1">
	<path class="st2" d="M27,5L11.3,16.9v23.6h17.6v-2.3H13.5V18L27,7.8L40.5,18v8.6h2.3v-9.7L27,5z"/>
</g>
<rect x="57.1" y="16.3" class="st3" width="5" height="4"/>
<polygon class="st3" points="49,39.4 43.9,41.7 41.6,46.8 39.3,41.7 34.2,39.4 39.3,37.1 41.6,32 43.9,37.1 "/>
<path class="st3" d="M43.9,41.7l-2.3,5.1l-2.3-5.1l-5.1-2.3l5.1-2.3l2.3-5.1l2.3,5.1l5.1,2.3L43.9,41.7z"/>
</svg>
