<svg width="54" height="54" viewBox="0 0 54 54" fill="none" xmlns="http://www.w3.org/2000/svg">
<g clip-path="url(#clip0_525_1373)">
<path d="M37.5 12.1H34.3L41.5 19.3V42.4H43.7001V18.4L37.5 12.1ZM19.2 25V28.4H22.6V25H19.2ZM19.2 25V28.4H22.6V25H19.2ZM20.9 12.1L9.80005 23.2V42.3H32.1V23.2L20.9 12.1ZM29.8 40.1H22.6V35H19.2V40.2H12V24.2L20.9 15.3L29.8 24.2V40.1ZM19.2 28.5H22.6V25H19.2V28.5Z" fill="#1C1B1F"/>
<path d="M37.9 20.8V42.4H35.7V21.8L26 12.1H29.2L37.9 20.8Z" fill="#E83B23"/>
</g>
<defs>
<clipPath id="clip0_525_1373">
<rect width="54" height="54" fill="white"/>
</clipPath>
</defs>
</svg>
