<svg width="54" height="54" viewBox="0 0 54 54" fill="none" xmlns="http://www.w3.org/2000/svg">
<g clip-path="url(#clip0_525_1344)">
<path d="M44.5001 15.6L22.5001 7.1L11.5001 20.6L7.6001 25.4L9.4001 26.8L12.8001 22.5L16.0001 34.8C16.0001 34.8 17.5001 35.7 18.6001 35.6L14.6001 20.7L14.5001 20.4L23.2001 9.8L36.1001 14.7L37.7001 20.7L41.1001 33.5C41.1001 33.5 43.0001 33.4 43.5001 33.8L40.0001 20.8L38.7001 15.8L43.8001 17.8L44.5001 15.6ZM45.2001 42.2C44.6001 41.6 43.4001 41.3 41.6001 41.3C39.7001 41.3 38.3001 41.7 37.6001 42.4C36.9001 43.2 35.7001 43.5 34.2001 43.5C32.7001 43.5 31.5001 43.1 30.8001 42.4C30.0001 41.7 28.7001 41.3 26.8001 41.3C24.9001 41.3 23.5001 41.7 22.8001 42.4C22.1001 43.2 20.9001 43.5 19.4001 43.5C17.8001 43.5 16.7001 43.1 16.0001 42.4C15.3001 41.7 14.0001 41.3 12.0001 41.3C10.2001 41.3 9.0001 41.6 8.4001 42.2C7.8001 42.8 6.9001 43.2 5.6001 43.4V45.7C7.1001 45.5 8.1001 45.1 8.8001 44.5C9.5001 43.9 10.6001 43.6 11.9001 43.6C13.5001 43.6 14.6001 44 15.3001 44.7C16.0001 45.5 17.4001 45.8 19.3001 45.8C21.2001 45.8 22.6001 45.4 23.3001 44.7C24.0001 44 25.2001 43.6 26.7001 43.6C28.2001 43.6 29.4001 44 30.2001 44.7C31.0001 45.5 32.3001 45.8 34.2001 45.8C36.1001 45.8 37.4001 45.4 38.2001 44.7C39.0001 44 40.1001 43.6 41.6001 43.6C43.0001 43.6 44.0001 43.9 44.7001 44.5C45.4001 45.1 46.5001 45.5 47.9001 45.7V43.4C46.7001 43.2 45.8001 42.8 45.2001 42.2Z" fill="#1C1B1F"/>
<path d="M47.9 35.5V37.7C46.5 37.5 45.4 37.1 44.7 36.5C44 36 43 35.7 41.6 35.7C40.1 35.7 38.9 36.1 38.2 36.8C37.5 37.6 36.2 37.9 34.2 37.9C32.3 37.9 31 37.5 30.2 36.8C29.4 36.1 28.3 35.7 26.7 35.7C25.1 35.7 24 36.1 23.3 36.8C22.6 37.6 21.2 37.9 19.3 37.9C17.4 37.9 16.1 37.5 15.3 36.8C14.5 36.1 13.4 35.7 11.9 35.7C10.6 35.7 9.6 36 8.8 36.6C8 37.2 6.9 37.6 5.5 37.8V35.5C6.8 35.3 7.7 34.9 8.3 34.3C8.9 33.7 10.1 33.4 11.9 33.4C12.6 33.4 13.2 33.5 13.7 33.6C14.3 33.8 15 34.1 16 34.7C16 34.7 17.5 35.6 18.6 35.5C18.8 35.5 18.9 35.6 19 35.6C19.1 35.6 19.2 35.6 19.3 35.6C20.6 35.6 21.5 35.3 22.2 34.8C22.9 34.3 23.8 33.8 25 33.5L22.7 25L31.3 22.7L34.7 35.6C36 35.5 36.9 35.1 37.6 34.5C38.3 33.9 39.4 33.5 41 33.4C41 33.4 42.9 33.3 43.4 33.7C44.2 33.8 44.9 34.1 45.6 34.6C46.4 35.1 47.1 35.4 47.9 35.5Z" fill="#E83B23"/>
</g>
<defs>
<clipPath id="clip0_525_1344">
<rect width="54" height="54" fill="white"/>
</clipPath>
</defs>
</svg>
